<?xml version="1.0" encoding="UTF-8" standalone="no"?>
<svg
   xmlns:svg="http://www.w3.org/2000/svg"
   xmlns="http://www.w3.org/2000/svg"
   xmlns:sodipodi="http://sodipodi.sourceforge.net/DTD/sodipodi-0.dtd"
   xmlns:inkscape="http://www.inkscape.org/namespaces/inkscape"
   inkscape:version="1.0 (4035a4fb49, 2020-05-01)"
   sodipodi:docname="Bulb.svg"
   xml:space="preserve"
   style="enable-background:new 0 0 22 22;"
   viewBox="0 0 22 22"
   y="0px"
   x="0px"
   id="Ebene_1"
   version="1.1"><defs
     id="defs15" /><sodipodi:namedview
     inkscape:current-layer="Ebene_1"
     inkscape:window-maximized="1"
     inkscape:window-y="-6"
     inkscape:window-x="-6"
     inkscape:cy="12.427067"
     inkscape:cx="5.0934086"
     inkscape:zoom="22.113158"
     showgrid="false"
     id="namedview13"
     inkscape:window-height="898"
     inkscape:window-width="1536"
     inkscape:pageshadow="2"
     inkscape:pageopacity="0"
     guidetolerance="10"
     gridtolerance="10"
     objecttolerance="10"
     borderopacity="1"
     bordercolor="#666666"
     pagecolor="#ffffff" /><path
     id="path8"
     d="M8.7,16.3c-0.2,0-0.5-0.1-0.6-0.2c-0.2-0.2-0.3-0.5-0.3-0.7c0-1.2-0.3-2.9-1-3.6c-0.1-0.2-0.3-0.3-0.5-0.5   c-0.9-0.8-2.1-1.9-2.1-4.6c0-2.4,1.8-6.3,6.8-6.3c5.4,0,6.8,4.2,6.8,6.4c0,2.4-1.3,3.7-2.3,4.6l-0.3,0.3c-0.6,0.6-0.6,1.3-0.6,2.6   l0,0.3c0,0.8,0,0.8-5.8,1.7C8.8,16.3,8.8,16.3,8.7,16.3z M11,2.3c-3.5,0-4.8,2.6-4.8,4.3c0,1.8,0.7,2.5,1.5,3.2   c0.2,0.2,0.4,0.4,0.6,0.6c0.9,1,1.3,2.5,1.4,3.8c0.9-0.1,2.2-0.3,3-0.4c0-1.2,0.1-2.4,1.1-3.5l0.3-0.3c0.9-0.9,1.7-1.7,1.7-3.3   C15.8,6.6,15.8,2.3,11,2.3z"
     class="st1" /><path
     id="path6"
     d="M9.6,21.6c-0.4,0-0.7-0.3-0.7-0.6c-0.1-0.4,0.2-0.8,0.6-0.8l3-0.5c0.4-0.1,0.8,0.2,0.8,0.6   c0.1,0.4-0.2,0.8-0.6,0.8l-3,0.5C9.7,21.6,9.7,21.6,9.6,21.6z M8.9,19.9c-0.4,0-0.7-0.3-0.7-0.6c-0.1-0.4,0.2-0.8,0.6-0.8l4.5-0.7   c0.4-0.1,0.8,0.2,0.8,0.6c0.1,0.4-0.2,0.8-0.6,0.8L9,19.9C9,19.9,9,19.9,8.9,19.9z M8.9,18.1c-0.4,0-0.7-0.3-0.7-0.6   c-0.1-0.4,0.2-0.8,0.6-0.8l4.5-0.7c0.4-0.1,0.8,0.2,0.8,0.6c0.1,0.4-0.2,0.8-0.6,0.8L9,18.1C9,18.1,8.9,18.1,8.9,18.1z"
     class="st1" /></svg>
