<?xml version="1.0" encoding="UTF-8" standalone="no"?>
<svg
   xmlns:svg="http://www.w3.org/2000/svg"
   xmlns="http://www.w3.org/2000/svg"
   xmlns:sodipodi="http://sodipodi.sourceforge.net/DTD/sodipodi-0.dtd"
   xmlns:inkscape="http://www.inkscape.org/namespaces/inkscape"
   inkscape:version="1.0 (4035a4fb49, 2020-05-01)"
   sodipodi:docname="EyeSlash.svg"
   xml:space="preserve"
   style="enable-background:new 0 0 22 22;"
   viewBox="0 0 22 22"
   y="0px"
   x="0px"
   id="Ebene_1"
   version="1.1"><defs
     id="defs11" /><sodipodi:namedview
     inkscape:current-layer="Ebene_1"
     showgrid="false"
     id="namedview9"
     inkscape:window-height="480"
     inkscape:window-width="640"
     inkscape:pageshadow="2"
     inkscape:pageopacity="0"
     guidetolerance="10"
     gridtolerance="10"
     objecttolerance="10"
     borderopacity="1"
     bordercolor="#666666"
     pagecolor="#ffffff" /><path
     id="path6"
     d="M0.5,10.9c0,0,1.6-2.8,4.4-4.8L1.2,2.4l1.4-1.3l4,4c1.3-0.7,2.8-1.1,4.5-1.1c6,0,10.4,7,10.4,7  s-1.6,2.7-4.3,4.7l3.8,3.8l-1.3,1.4l-4.1-4.1c-1.3,0.8-2.9,1.3-4.5,1.3C4.5,18.1,0.5,10.9,0.5,10.9L0.5,10.9z M10,8.4  c0.3-0.1,0.7-0.2,1.1-0.2c1.5,0,2.8,1.3,2.8,2.8c0,0.4-0.1,0.8-0.2,1.1l1.7,1.7c0.5-0.8,0.8-1.8,0.8-2.8c0-2.8-2.3-5.1-5.1-5.1  c-1,0-2,0.3-2.8,0.8L10,8.4L10,8.4z M8.2,11c0-0.4,0.1-0.9,0.3-1.2L6.9,8.1C6.3,8.9,6,9.9,6,11c0,2.8,2.3,5.1,5.1,5.1  c1.1,0,2.1-0.3,2.9-0.9l-1.7-1.7c-0.4,0.2-0.8,0.3-1.2,0.3C9.5,13.8,8.2,12.6,8.2,11L8.2,11z"
     class="st1" /></svg>
