<?xml version="1.0" encoding="UTF-8" standalone="no"?>
<svg
   xmlns:svg="http://www.w3.org/2000/svg"
   xmlns="http://www.w3.org/2000/svg"
   xmlns:sodipodi="http://sodipodi.sourceforge.net/DTD/sodipodi-0.dtd"
   xmlns:inkscape="http://www.inkscape.org/namespaces/inkscape"
   inkscape:version="1.0 (4035a4fb49, 2020-05-01)"
   sodipodi:docname="2D.svg"
   id="svg12"
   version="1.1"
   viewBox="0 0 22 22">
  <defs
     id="defs16" />
  <sodipodi:namedview
     inkscape:current-layer="svg12"
     showgrid="false"
     id="namedview14"
     inkscape:window-height="480"
     inkscape:window-width="640"
     inkscape:pageshadow="2"
     inkscape:pageopacity="0"
     guidetolerance="10"
     gridtolerance="10"
     objecttolerance="10"
     borderopacity="1"
     pagecolor="#ffffff" />
  <path
     id="path43"
     d="M 11,16.996572 V 5.7934469 h 3.96875 q 5.96875,0 5.96875,5.4609371 0,2.617188 -1.632813,4.179688 -1.625,1.5625 -4.335937,1.5625 z m 2.523438,-9.1484376 v 7.1015626 h 1.25 q 1.640625,0 2.570312,-0.984375 0.9375,-0.984375 0.9375,-2.679688 0,-1.6015621 -0.929688,-2.5156246 -0.921874,-0.921875 -2.593749,-0.921875 z" />
  <path
     id="path41"
     d="m 3.8432155,14.93975 h 4.750159 v 2.046875 H 1.14 v -0.84375 Q 1.14,15.2835 1.4290722,14.603812 1.7181444,13.916312 2.155659,13.37725 2.5931736,12.830375 3.1088159,12.416312 3.6322709,11.994437 4.1010366,11.6585 4.5932406,11.306937 4.9604404,10.986625 5.3354529,10.666312 5.5854613,10.353812 5.8432824,10.0335 5.9682866,9.7131872 6.0932908,9.3850622 6.0932908,9.0178747 q 0,-0.71875 -0.4062636,-1.0859375 -0.4062636,-0.3671875 -1.2422291,-0.3671875 -1.4453609,0 -2.7657176,1.1484375 V 6.5413117 q 1.4609864,-0.945312 3.2969854,-0.945312 0.851591,0 1.5234885,0.226562 0.6797102,0.21875 1.1484759,0.632813 Q 8.116796,6.8694367 8.3589916,7.4631872 8.609,8.0491247 8.609,8.7756872 q 0,0.7734375 -0.2421956,1.3749998 -0.2343829,0.601563 -0.6328337,1.09375 -0.3906381,0.492188 -0.9062803,0.90625 -0.5156423,0.40625 -1.0703483,0.789063 -0.3750126,0.265625 -0.7265869,0.53125 -0.3437615,0.257812 -0.6093954,0.515625 -0.2656339,0.25 -0.4218891,0.492187 Q 3.8432155,14.721 3.8432155,14.93975 Z" />
</svg>
