<?xml version="1.0" encoding="UTF-8" standalone="no"?>
<svg
   xmlns:dc="http://purl.org/dc/elements/1.1/"
   xmlns:cc="http://creativecommons.org/ns#"
   xmlns:rdf="http://www.w3.org/1999/02/22-rdf-syntax-ns#"
   xmlns:svg="http://www.w3.org/2000/svg"
   xmlns="http://www.w3.org/2000/svg"
   xmlns:sodipodi="http://sodipodi.sourceforge.net/DTD/sodipodi-0.dtd"
   xmlns:inkscape="http://www.inkscape.org/namespaces/inkscape"
   inkscape:version="1.0 (4035a4fb49, 2020-05-01)"
   sodipodi:docname="Dummy.svg"
   xml:space="preserve"
   style="enable-background:new 0 0 22 22;"
   viewBox="0 0 22 22"
   y="0px"
   x="0px"
   id="Ebene_1"
   version="1.1"><metadata
     id="metadata22"><rdf:RDF><cc:Work
         rdf:about=""><dc:format>image/svg+xml</dc:format><dc:type
           rdf:resource="http://purl.org/dc/dcmitype/StillImage" /></cc:Work></rdf:RDF></metadata><defs
     id="defs15" /><sodipodi:namedview
     inkscape:current-layer="Ebene_1"
     showgrid="false"
     id="namedview13"
     inkscape:window-height="480"
     inkscape:window-width="640"
     inkscape:pageshadow="2"
     inkscape:pageopacity="0"
     guidetolerance="10"
     gridtolerance="10"
     objecttolerance="10"
     borderopacity="1"
     bordercolor="#666666"
     pagecolor="#ffffff"
     inkscape:document-rotation="0" /><path
     id="rect26"
     d="M 0 0 L 0 22 L 22 22 L 22 0 L 0 0 z M 1 1 L 21 1 L 21 21 L 1 21 L 1 1 z " /><path
     d="M 2.345653,19.565177 2.002801,19.21925 6.13479,15.087538 10.266778,10.955825 6.133389,6.8221641 2,2.6885033 2.345927,2.3456513 2.691854,2.0027994 6.796013,6.1072362 c 2.2572877,2.2574401 4.128957,4.1044368 4.159263,4.1044368 0.03031,0 1.902854,-1.8476265 4.161214,-4.1058364 L 19.222601,2 l 0.342851,0.3459259 0.342851,0.345926 -4.131988,4.1317128 -4.131989,4.1317123 4.133389,4.133661 4.133389,4.133661 -0.345927,0.342852 -0.345926,0.342851 -4.131713,-4.131988 -4.131712,-4.131988 -4.133661,4.133388 -4.133661,4.133389 z"
     id="path57" /></svg>
