<?xml version="1.0" encoding="UTF-8" standalone="no"?>
<svg
   xmlns:dc="http://purl.org/dc/elements/1.1/"
   xmlns:cc="http://creativecommons.org/ns#"
   xmlns:rdf="http://www.w3.org/1999/02/22-rdf-syntax-ns#"
   xmlns:svg="http://www.w3.org/2000/svg"
   xmlns="http://www.w3.org/2000/svg"
   xmlns:sodipodi="http://sodipodi.sourceforge.net/DTD/sodipodi-0.dtd"
   xmlns:inkscape="http://www.inkscape.org/namespaces/inkscape"
   version="1.1"
   id="Ebene_1"
   x="0px"
   y="0px"
   viewBox="0 0 22 22"
   style="enable-background:new 0 0 22 22;"
   xml:space="preserve"
   sodipodi:docname="Team.svg"
   inkscape:version="1.0 (4035a4fb49, 2020-05-01)"><metadata
     id="metadata9"><rdf:RDF><cc:Work
         rdf:about=""><dc:format>image/svg+xml</dc:format><dc:type
           rdf:resource="http://purl.org/dc/dcmitype/StillImage" /></cc:Work></rdf:RDF></metadata><defs
     id="defs1034" /><sodipodi:namedview
     inkscape:document-rotation="0"
     pagecolor="#ffffff"
     bordercolor="#666666"
     borderopacity="1"
     objecttolerance="10"
     gridtolerance="10"
     guidetolerance="10"
     inkscape:pageopacity="0"
     inkscape:pageshadow="2"
     inkscape:window-width="640"
     inkscape:window-height="480"
     id="namedview1032"
     showgrid="false"
     inkscape:current-layer="Ebene_1" /><path
     class="st1"
     d="M0.8,20.8c0,0-0.8-6.8,2.5-7.4c1.1,2,3.2,2.1,3.5,2.1c0.4,0,2.3-0.2,3.7-2.1c3.1,0.6,2.4,6.4,2.3,7.4   C12.9,20.8,0.8,20.8,0.8,20.8L0.8,20.8z"
     id="path1021" /><path
     class="st1"
     d="M3.6,10.8c0-2.2,1.6-4.1,3.4-4.1s3.4,1.9,3.4,4.1s-1.6,4.1-3.4,4.1S3.6,13,3.6,10.8L3.6,10.8z"
     id="path1023" /><path
     class="st1"
     d="M11.2,8.2c1.1,2,3.3,2.2,3.7,2.2c0.4,0,2.4-0.2,3.8-2.2c3.2,0.6,2.5,7.4,2.4,8.3c0,0-3.9,0.1-7.4,0.1   c0,0-0.2-3.2-2.9-4.1c0.6-1.7,0-4.1,0-4.1L11.2,8.2L11.2,8.2z"
     id="path1025" /><path
     class="st1"
     d="M11.5,5.3c0-2.2,1.6-4.1,3.4-4.1s3.4,1.9,3.4,4.1S16.9,9.4,15,9.4S11.5,7.6,11.5,5.3L11.5,5.3z"
     id="path1027" /></svg>
