<?xml version="1.0" encoding="UTF-8" standalone="no"?>
<svg
   xmlns:svg="http://www.w3.org/2000/svg"
   xmlns="http://www.w3.org/2000/svg"
   xmlns:sodipodi="http://sodipodi.sourceforge.net/DTD/sodipodi-0.dtd"
   xmlns:inkscape="http://www.inkscape.org/namespaces/inkscape"
   inkscape:version="1.0 (4035a4fb49, 2020-05-01)"
   sodipodi:docname="Process.svg"
   xml:space="preserve"
   style="enable-background:new 0 0 22 22;"
   viewBox="0 0 22 22"
   y="0px"
   x="0px"
   id="Ebene_1"
   version="1.1"><defs
     id="defs17" /><sodipodi:namedview
     inkscape:current-layer="Ebene_1"
     showgrid="false"
     id="namedview15"
     inkscape:window-height="480"
     inkscape:window-width="640"
     inkscape:pageshadow="2"
     inkscape:pageopacity="0"
     guidetolerance="10"
     gridtolerance="10"
     objecttolerance="10"
     borderopacity="1"
     bordercolor="#666666"
     pagecolor="#ffffff" /><path
     id="path8"
     d="M2.5,12.9c0,0-2.2,0.4-2.2,0.3c0.1,0,2.8-6.8,2.8-6.8l4,6.1l-2.1,0.3c0,0,0.5,2,1.7,3.4   c2.2,2.3,4.5,2.2,4.5,2.2l-0.4,2.4c0,0-3.3,0.1-6-3.1C2.5,15.1,2.5,12.9,2.5,12.9L2.5,12.9z"
     class="st1" /><path
     id="path10"
     d="M17.7,18.2c0,0,1.4,1.7,1.3,1.7c-0.1,0-7.3,0.9-7.3,0.9l3.4-6.5l1.2,1.7c0,0,1.5-1.4,2-3.3   c0.9-3.2-0.2-5-0.2-5l2.3-0.9c0,0,1.6,2.7,0.4,6.6C19.6,17.2,17.7,18.2,17.7,18.2L17.7,18.2z"
     class="st1" /><path
     id="path6"
     d="M14.7,2.4c0,0,0.9-2.1,0.9-2s4.5,5.9,4.5,5.9l-7.3,0.4l0.8-1.9c0,0-2-0.6-3.8-0.2C6.6,5.3,5.5,7.2,5.5,7.2   l-2-1.5c0,0,1.5-2.8,5.6-3.7C12.9,1.4,14.7,2.4,14.7,2.4L14.7,2.4z"
     class="st1" /></svg>
