<?xml version="1.0" encoding="UTF-8" standalone="no"?>
<svg
   xmlns:svg="http://www.w3.org/2000/svg"
   xmlns="http://www.w3.org/2000/svg"
   xmlns:sodipodi="http://sodipodi.sourceforge.net/DTD/sodipodi-0.dtd"
   xmlns:inkscape="http://www.inkscape.org/namespaces/inkscape"
   inkscape:version="1.0 (4035a4fb49, 2020-05-01)"
   sodipodi:docname="Bell2.svg"
   xml:space="preserve"
   style="enable-background:new 0 0 22 22;"
   viewBox="0 0 22 22"
   y="0px"
   x="0px"
   id="Ebene_1"
   version="1.1"><defs
     id="defs13" /><sodipodi:namedview
     inkscape:current-layer="Ebene_1"
     inkscape:window-maximized="1"
     inkscape:window-y="-6"
     inkscape:window-x="-6"
     inkscape:cy="11.980145"
     inkscape:cx="13.260393"
     inkscape:zoom="22.113158"
     showgrid="false"
     id="namedview11"
     inkscape:window-height="898"
     inkscape:window-width="1536"
     inkscape:pageshadow="2"
     inkscape:pageopacity="0"
     guidetolerance="10"
     gridtolerance="10"
     objecttolerance="10"
     borderopacity="1"
     bordercolor="#666666"
     pagecolor="#ffffff" /><path
     id="path6"
     d="M17.9,21.3l-9.4-3.7c0,0.1,0,0.3,0,0.4c0,1.3-1.1,2.4-2.4,2.4c-1.3,0-2.4-1.1-2.4-2.4c0-0.8,0.4-1.5,0.9-1.9   l-3.9-1.5l1.5-1.2c0,0,1.8-1.4,3-4.6l1.2-3.2c0.7-1.8,2.1-3.2,3.8-4C12,0.9,14,0.8,15.8,1.5c3.7,1.4,5.5,5.6,4,9.3l-1.3,3.2   c-1.2,3.1-0.9,5.4-0.9,5.4L17.9,21.3L17.9,21.3z M4.8,13.9L15.4,18c0.1-1.2,0.3-2.8,1.1-4.8l1.3-3.3c1-2.6-0.3-5.5-2.8-6.5   c-1.2-0.5-2.6-0.5-3.8,0.1C9.9,4.2,9,5.2,8.5,6.4L7.2,9.7C6.5,11.6,5.6,13,4.8,13.9L4.8,13.9z"
     class="st1" /></svg>
