<?xml version="1.0" encoding="UTF-8" standalone="no"?>
<svg
   xmlns:svg="http://www.w3.org/2000/svg"
   xmlns="http://www.w3.org/2000/svg"
   xmlns:sodipodi="http://sodipodi.sourceforge.net/DTD/sodipodi-0.dtd"
   xmlns:inkscape="http://www.inkscape.org/namespaces/inkscape"
   inkscape:version="1.0 (4035a4fb49, 2020-05-01)"
   sodipodi:docname="Star.svg"
   id="svg8"
   version="1.1"
   viewBox="0 0 22 22">
  <defs
     id="defs12" />
  <sodipodi:namedview
     inkscape:current-layer="svg8"
     showgrid="false"
     id="namedview10"
     inkscape:window-height="480"
     inkscape:window-width="640"
     inkscape:pageshadow="2"
     inkscape:pageopacity="0"
     guidetolerance="10"
     gridtolerance="10"
     objecttolerance="10"
     borderopacity="1"
     pagecolor="#ffffff" />
  <path
     d="M 10.999609,0.4999994 7.9996094,8 l -8,0.40039 6.199219,5 -2,7.699219 6.8007806,-4.298828 6.798828,4.398438 L 15.698828,13.5 21.9,8.40039 13.9,8 Z m 0.0098,5.0878906 c 0.01192,0.013007 0.395968,0.9465316 0.851563,2.074219 l 0.828125,2.050781 2.160156,0.189453 c 1.188462,0.104367 2.191599,0.19657 2.228516,0.205079 0.05522,0.01273 -0.238571,0.260044 -1.654297,1.392578 -1.028466,0.82274 -1.720828,1.396239 -1.720703,1.425781 1.2e-4,0.02719 0.239704,0.98671 0.533203,2.130859 0.293498,1.14415 0.531203,2.084643 0.527344,2.089844 -0.0039,0.0052 -0.850773,-0.523916 -1.882813,-1.175781 l -1.876953,-1.185547 -0.138672,0.08594 c -0.07673,0.04722 -0.9073358,0.569809 -1.8457031,1.16211 -1.9743852,1.246243 -1.7812492,1.126542 -1.7812502,1.101562 0,-0.01087 0.262965,-0.961452 0.583985,-2.111328 0.32102,-1.149877 0.5820307,-2.101531 0.5820307,-2.115234 0,-0.0137 -0.8006357,-0.671257 -1.7812497,-1.460938 l -1.783203,-1.435546 0.144531,-0.0098 c 0.07929,-0.0053 1.083971,-0.07144 2.234375,-0.148438 L 9.3101605,9.712859 10.150004,7.638641 C 10.61145,6.4979466 10.997463,5.5748515 11.009379,5.587859 Z"
     id="path6-7" />
</svg>
