<?xml version="1.0" encoding="UTF-8" standalone="no"?>
<svg
   xmlns:svg="http://www.w3.org/2000/svg"
   xmlns="http://www.w3.org/2000/svg"
   xmlns:sodipodi="http://sodipodi.sourceforge.net/DTD/sodipodi-0.dtd"
   xmlns:inkscape="http://www.inkscape.org/namespaces/inkscape"
   inkscape:version="1.0 (4035a4fb49, 2020-05-01)"
   sodipodi:docname="Map.svg"
   id="svg8"
   version="1.1"
   viewBox="0 0 22 22">
  <defs
     id="defs12" />
  <sodipodi:namedview
     inkscape:current-layer="svg8"
     showgrid="false"
     id="namedview10"
     inkscape:window-height="480"
     inkscape:window-width="640"
     inkscape:pageshadow="2"
     inkscape:pageopacity="0"
     guidetolerance="10"
     gridtolerance="10"
     objecttolerance="10"
     borderopacity="1"
     pagecolor="#ffffff" />
  <path
     d="m 20.201172,1.7 -6.601563,4.0996094 -5.699218,-4 -6.300782,4 H 1.5 V 20.500781 l 6.300781,-4.601562 5.900391,4.701172 6.5,-4.400391 z m -1.521485,2.640625 c 0.007,10e-8 0.01367,2.3283171 0.01367,5.1738282 v 5.1738278 l -1.878906,1.373047 c -1.032488,0.755679 -1.948143,1.425609 -2.035156,1.488282 l -0.158203,0.113281 0.0078,-5.333984 0.0078,-5.3339851 2.015625,-1.328125 c 1.10836,-0.7298564 2.020364,-1.3261719 2.02737,-1.3261719 z m -9.878906,0.058594 4,2.7011719 L 13,17.7 8.900391,14.2 Z m -1.736328,0.039063 0.00977,0.1679687 c 0.01391,0.2398697 -0.08674,9.5607525 -0.103516,9.5878915 -0.02024,0.03276 -3.80647,3.136718 -3.826172,3.136718 -0.0091,0 -0.015875,-0.421092 -0.015625,-0.935547 2.52e-4,-0.514455 0.019019,-2.901149 0.042969,-5.304687 L 3.216797,6.7195313 3.283203,6.6746094 C 3.319783,6.6499154 4.1854,6.1366178 5.207031,5.5339844 Z"
     id="path6-9" />
</svg>
