<?xml version="1.0" encoding="UTF-8" standalone="no"?>
<svg
   xmlns:svg="http://www.w3.org/2000/svg"
   xmlns="http://www.w3.org/2000/svg"
   xmlns:sodipodi="http://sodipodi.sourceforge.net/DTD/sodipodi-0.dtd"
   xmlns:inkscape="http://www.inkscape.org/namespaces/inkscape"
   inkscape:version="1.0 (4035a4fb49, 2020-05-01)"
   sodipodi:docname="MapMarker.svg"
   version="1.1"
   viewBox="0 0 22 22"
   data-name="*Location Symbol"
   id="_Location_Symbol">
  <defs
     id="defs8" />
  <sodipodi:namedview
     inkscape:current-layer="_Location_Symbol"
     showgrid="false"
     id="namedview6"
     inkscape:window-height="480"
     inkscape:window-width="640"
     inkscape:pageshadow="2"
     inkscape:pageopacity="0"
     guidetolerance="10"
     gridtolerance="10"
     objecttolerance="10"
     borderopacity="1"
     pagecolor="#ffffff" />
  <path
     d="M 11.000391,0.4003902 C 8.2003912,0.4003903 3.0003902,2.199609 3.0003902,8.099609 3.0003902,14.399609 11.1,21.5 11.1,21.5 c 0,0 8.201172,-7.3 8.201172,-13.5000004 0,-5.7 -5.500781,-7.5996094 -8.300781,-7.5996094 z m -0.05859,3.1230469 c 1.020563,-0.036456 2.051647,0.2671289 2.917969,0.9199219 0.905454,0.6822807 1.541409,1.7189434 1.753906,2.8554688 0.07468,0.3994074 0.07491,1.1666399 0,1.5703124 -0.298576,1.6090358 -1.451914,2.9781248 -2.976563,3.5332028 -0.52644,0.191661 -0.827697,0.244443 -1.470703,0.25586 -0.39931,0.0071 -0.655014,-0.0018 -0.808594,-0.0293 -0.5054058,-0.09037 -0.8873908,-0.219748 -1.3535148,-0.457031 -1.28197,-0.652596 -2.177261,-1.87496 -2.421875,-3.306641 -0.08737,-0.5113414 -0.068452,-1.2918707 0.042968,-1.7617188 0.231982,-0.9782313 0.739515,-1.829409 1.460938,-2.453125 0.824933,-0.7132065 1.834906,-1.0904974 2.8554688,-1.1269531 z"
     id="Pfad_1838-8" />
</svg>
