<?xml version="1.0" encoding="UTF-8" standalone="no"?>
<svg
   xmlns:svg="http://www.w3.org/2000/svg"
   xmlns="http://www.w3.org/2000/svg"
   xmlns:sodipodi="http://sodipodi.sourceforge.net/DTD/sodipodi-0.dtd"
   xmlns:inkscape="http://www.inkscape.org/namespaces/inkscape"
   inkscape:version="1.0 (4035a4fb49, 2020-05-01)"
   sodipodi:docname="TIC.svg"
   id="svg8"
   version="1.1"
   viewBox="0 0 22 22">
  <defs
     id="defs12" />
  <sodipodi:namedview
     inkscape:current-layer="svg8"
     showgrid="false"
     id="namedview10"
     inkscape:window-height="480"
     inkscape:window-width="640"
     inkscape:pageshadow="2"
     inkscape:pageopacity="0"
     guidetolerance="10"
     gridtolerance="10"
     objecttolerance="10"
     borderopacity="1"
     pagecolor="#ffffff" />
  <path
     id="path6"
     d="M16,16.7l-5,5-5-5V12.6l.5,1c.7,1.3,2.2,3.2,6.1,3.2.8-.1,3.4-.1,3.4-.1ZM16.8,6l5,5-5,4.9H12.7l1-.5c1.3-.7,3.2-2.2,3.2-6.1-.1-.7-.1-3.3-.1-3.3ZM6.1,5.2l5-5,5,5V9.3l-.5-1c-.7-1.4-2.2-3.2-6.1-3.2-.8.1-3.4.1-3.4.1ZM5.2,16l-5-5,5-5H9.3l-1,.5C7,7.1,5.2,8.6,5.2,12.6V16Z" />
</svg>
