<?xml version="1.0" encoding="UTF-8" standalone="no"?>
<svg
   xmlns:dc="http://purl.org/dc/elements/1.1/"
   xmlns:cc="http://creativecommons.org/ns#"
   xmlns:rdf="http://www.w3.org/1999/02/22-rdf-syntax-ns#"
   xmlns:svg="http://www.w3.org/2000/svg"
   xmlns="http://www.w3.org/2000/svg"
   xmlns:sodipodi="http://sodipodi.sourceforge.net/DTD/sodipodi-0.dtd"
   xmlns:inkscape="http://www.inkscape.org/namespaces/inkscape"
   inkscape:version="1.0 (4035a4fb49, 2020-05-01)"
   sodipodi:docname="Globe.svg"
   xml:space="preserve"
   style="enable-background:new 0 0 22 22;"
   viewBox="0 0 22 22"
   y="0px"
   x="0px"
   id="Ebene_1"
   version="1.1"><metadata
     id="metadata8"><rdf:RDF><cc:Work
         rdf:about=""><dc:format>image/svg+xml</dc:format><dc:type
           rdf:resource="http://purl.org/dc/dcmitype/StillImage" /></cc:Work></rdf:RDF></metadata><defs
     id="defs1182" /><sodipodi:namedview
     inkscape:current-layer="Ebene_1"
     showgrid="false"
     id="namedview1180"
     inkscape:window-height="480"
     inkscape:window-width="640"
     inkscape:pageshadow="2"
     inkscape:pageopacity="0"
     guidetolerance="10"
     gridtolerance="10"
     objecttolerance="10"
     borderopacity="1"
     bordercolor="#666666"
     pagecolor="#ffffff"
     inkscape:document-rotation="0" /><path
     id="path1171"
     style="clip-rule:evenodd;fill-rule:evenodd"
     d="M 8.4199219 0.9921875 L 8.4003906 1.6992188 L 8.0292969 1.0976562 C 8.0292969 1.0976562 6.4003411 2.1010107 5.0644531 4.078125 C 4.4799652 4.9431672 3.9590063 6.0209252 3.6328125 7.2734375 C 2.1171723 8.0772895 1.1933594 8.7207031 1.1933594 8.7207031 L 2.0078125 9.8789062 C 2.0078125 9.8789062 2.5611069 9.527635 3.3261719 9.0800781 C 3.2542316 10.032102 3.3224076 11.072338 3.546875 12.181641 L 2 12.599609 L 2.4003906 14 L 3.9257812 13.599609 C 4.2182138 14.443717 4.6025218 15.198591 5.0566406 15.867188 C 4.2630239 15.847606 3.703125 15.798828 3.703125 15.798828 L 3.4980469 17.201172 C 3.4980469 17.201172 4.5143411 17.337875 6.2089844 17.277344 C 8.6336417 19.750224 11.863825 20.676495 12.921875 20.921875 C 12.922587 20.922463 12.947266 20.945312 12.947266 20.945312 L 12.958984 20.931641 C 13.15323 20.975756 13.277344 20.998047 13.277344 20.998047 L 13.378906 20.425781 L 13.400391 20.400391 L 13.857422 20.941406 C 13.857422 20.941406 17.182902 18.153814 18.214844 14.019531 C 19.894751 13.16717 20.902344 12.484375 20.902344 12.484375 L 20.099609 11.316406 C 20.099609 11.316406 19.439955 11.732495 18.486328 12.261719 C 18.539224 11.478383 18.493492 10.66105 18.328125 9.8144531 L 19.900391 9.4003906 L 19.400391 7.9003906 L 17.914062 8.3027344 C 17.498659 7.0958063 16.951194 6.0745929 16.316406 5.2265625 C 17.568762 5.2321454 18.240234 5.390625 18.240234 5.390625 L 18.5625 4.0097656 C 18.5625 4.0097656 17.755709 3.8288289 16.296875 3.8261719 C 15.936773 3.825516 15.535122 3.8366244 15.097656 3.8632812 C 14.256421 3.0795376 13.361073 2.4967666 12.507812 2.0859375 C 10.345507 1.0448274 8.4199229 0.9921875 8.4199219 0.9921875 z M 10.363281 2.7832031 C 10.834444 2.9217038 11.343226 3.0987785 11.892578 3.3632812 C 12.300988 3.5599233 12.717091 3.8039723 13.130859 4.0859375 C 12.637084 4.1599626 12.119355 4.252316 11.568359 4.3710938 C 11.145019 3.7679941 10.735129 3.2275491 10.363281 2.7832031 z M 8.7480469 3.0917969 C 9.1224697 3.5081737 9.5769914 4.0513283 10.078125 4.7285156 C 9.4778531 4.8857741 8.8970962 5.0610541 8.3378906 5.2480469 C 8.4581958 4.3784759 8.6095666 3.6537478 8.7480469 3.0917969 z M 7.1503906 3.7167969 C 7.028861 4.3203758 6.9227311 5.0237545 6.8417969 5.7988281 C 6.3305572 6.0010107 5.8521436 6.2069344 5.3964844 6.4140625 C 5.6417847 5.8433077 5.9304109 5.326737 6.2382812 4.8710938 C 6.538447 4.4268485 6.8497606 4.0449178 7.1503906 3.7167969 z M 14.574219 5.3203125 C 15.358872 6.1579402 16.049542 7.2520587 16.546875 8.6699219 L 14.134766 9.3222656 C 13.672517 7.9513344 13.045904 6.7249655 12.388672 5.6386719 C 13.203485 5.47808 13.921785 5.3822556 14.574219 5.3203125 z M 10.933594 5.9765625 C 11.619909 7.0528072 12.28743 8.3046728 12.765625 9.6914062 L 8.4023438 10.871094 C 8.1377442 9.4548694 8.1104216 8.0656782 8.1875 6.8085938 C 8.9150223 6.5462389 9.6712531 6.2958258 10.478516 6.0859375 L 10.484375 6.0839844 L 10.488281 6.0839844 C 10.645651 6.0407844 10.780638 6.0157689 10.933594 5.9765625 z M 6.7441406 7.3671875 C 6.7091785 8.5846712 6.7677061 9.8911078 7.03125 11.240234 L 4.9140625 11.8125 C 4.6511044 10.475393 4.6549953 9.2869534 4.8457031 8.2460938 C 5.4132466 7.9595733 6.0451851 7.6620798 6.7441406 7.3671875 z M 16.955078 10.173828 C 17.138073 11.18271 17.117111 12.149744 16.953125 13.060547 C 16.341883 13.354545 15.666414 13.656549 14.914062 13.957031 C 14.885226 12.950609 14.769353 11.886633 14.541016 10.808594 L 16.955078 10.173828 z M 13.169922 11.169922 C 13.405295 12.313202 13.482926 13.434003 13.482422 14.492188 C 12.950191 14.675448 12.398809 14.851927 11.822266 15.013672 C 11.820666 15.014084 11.819959 15.01326 11.818359 15.013672 C 11.247309 15.162044 10.703181 15.282719 10.179688 15.386719 C 9.626546 14.463637 9.1240266 13.44416 8.7695312 12.326172 L 13.169922 11.169922 z M 7.3964844 12.6875 C 7.7270944 13.753345 8.1672381 14.745434 8.6640625 15.642578 C 7.9865871 15.737962 7.3770035 15.797527 6.8222656 15.833984 C 6.1955481 15.107699 5.6657624 14.248574 5.2988281 13.238281 L 7.3964844 12.6875 z M 16.447266 14.847656 C 15.957996 16.103465 15.270545 17.185929 14.626953 18.019531 C 14.746892 17.281136 14.848732 16.434383 14.892578 15.478516 C 15.442008 15.269697 15.959663 15.061193 16.447266 14.847656 z M 13.429688 15.992188 C 13.334908 17.245289 13.153732 18.300768 12.992188 19.027344 C 12.452346 18.477005 11.736758 17.670448 11.005859 16.652344 C 11.392456 16.568646 11.772381 16.492618 12.179688 16.386719 L 12.185547 16.384766 L 12.191406 16.382812 C 12.621324 16.262436 13.022549 16.125039 13.429688 15.992188 z M 9.46875 16.945312 C 9.8927581 17.580757 10.318336 18.150573 10.730469 18.648438 C 9.9127908 18.278727 9.0302318 17.797566 8.1777344 17.126953 C 8.5870212 17.080816 9.0176869 17.017662 9.46875 16.945312 z " /><path
     id="path896"
     d="M 10.938977,0.63800003 A 10.300195,10.3 0 0 0 0.63800003,10.938781 10.300195,10.3 0 0 0 10.938977,21.237609 10.300195,10.3 0 0 0 21.238,10.938781 10.300195,10.3 0 0 0 10.938977,0.63800003 Z m 0,1.40039057 a 8.9001685,8.8999996 0 0 1 8.898606,8.9003904 8.9001685,8.8999996 0 0 1 -8.898606,8.898438 8.9001685,8.8999996 0 0 1 -8.9005594,-8.898438 8.9001685,8.8999996 0 0 1 8.9005594,-8.9003904 z" /></svg>
