<?xml version="1.0" encoding="UTF-8" standalone="no"?>
<svg
   xmlns:dc="http://purl.org/dc/elements/1.1/"
   xmlns:cc="http://creativecommons.org/ns#"
   xmlns:rdf="http://www.w3.org/1999/02/22-rdf-syntax-ns#"
   xmlns:svg="http://www.w3.org/2000/svg"
   xmlns="http://www.w3.org/2000/svg"
   xmlns:sodipodi="http://sodipodi.sourceforge.net/DTD/sodipodi-0.dtd"
   xmlns:inkscape="http://www.inkscape.org/namespaces/inkscape"
   viewBox="0 0 22 22"
   version="1.1"
   id="svg10"
   sodipodi:docname="Delete.svg"
   inkscape:version="1.0 (4035a4fb49, 2020-05-01)">
  <metadata
     id="metadata7">
    <rdf:RDF>
      <cc:Work
         rdf:about="">
        <dc:format>image/svg+xml</dc:format>
        <dc:type
           rdf:resource="http://purl.org/dc/dcmitype/StillImage" />
      </cc:Work>
    </rdf:RDF>
  </metadata>
  <defs
     id="defs14" />
  <sodipodi:namedview
     inkscape:document-rotation="0"
     pagecolor="#ffffff"
     bordercolor="#666666"
     borderopacity="1"
     objecttolerance="10"
     gridtolerance="10"
     guidetolerance="10"
     inkscape:pageopacity="0"
     inkscape:pageshadow="2"
     inkscape:window-width="640"
     inkscape:window-height="480"
     id="namedview12"
     showgrid="false"
     inkscape:current-layer="svg10" />
  <path
     d="M10.5,3.5l1.3-1.8a10.411,10.411,0,0,1,1.8.5,9.464,9.464,0,0,1,1.6.7l-.4,2.3a21.887,21.887,0,0,0-2-1.1c-.8-.2-2.3-.6-2.3-.6Zm-5.9.6L18.4,9.4,19,8.1a15.024,15.024,0,0,0-3.1-2.4c.1-.7.4-2.7.5-3.4-.4-.2-1.8-.8-2.2-1S12.1.7,11.6.5A27.834,27.834,0,0,0,9.4,3.1a26.025,26.025,0,0,0-4.3-.2L4.6,4.1Z"
     id="path6" />
  <path
     d="M 4.1992188 9.4003906 L 4.1992188 20 A 1.694 1.694 0 0 0 6 21.599609 L 15.300781 21.599609 A 1.694 1.694 0 0 0 17.099609 20 L 17.099609 9.4003906 L 6 9.4003906 L 4.1992188 9.4003906 z M 6 11.199219 L 15.300781 11.199219 L 15.300781 19.800781 L 6 19.800781 L 6 11.199219 z "
     id="path8" />
</svg>
