<?xml version="1.0" encoding="UTF-8" standalone="no"?>
<svg
   xmlns:svg="http://www.w3.org/2000/svg"
   xmlns="http://www.w3.org/2000/svg"
   xmlns:sodipodi="http://sodipodi.sourceforge.net/DTD/sodipodi-0.dtd"
   xmlns:inkscape="http://www.inkscape.org/namespaces/inkscape"
   inkscape:version="1.0 (4035a4fb49, 2020-05-01)"
   sodipodi:docname="Calender.svg"
   id="svg26"
   version="1.1"
   viewBox="0 0 22 22">
  <defs
     id="defs30" />
  <sodipodi:namedview
     inkscape:current-layer="svg26"
     showgrid="false"
     id="namedview28"
     inkscape:window-height="480"
     inkscape:window-width="640"
     inkscape:pageshadow="2"
     inkscape:pageopacity="0"
     guidetolerance="10"
     gridtolerance="10"
     objecttolerance="10"
     borderopacity="1"
     pagecolor="#ffffff" />
  <path
     id="path4"
     d="M7.7,7.4h2.4V9.8H7.7Z" />
  <path
     id="path8"
     d="M11.8,7.4h2.4V9.8H11.8Z" />
  <path
     id="path10"
     d="M15.8,7.4h2.4V9.8H15.8Z" />
  <path
     id="path12"
     d="M7.7,11h2.4v2.4H7.7Z" />
  <path
     id="path14"
     d="M11.8,11h2.4v2.4H11.8Z" />
  <path
     id="path16"
     d="M15.8,11h2.4v2.4H15.8Z" />
  <path
     id="path18"
     d="M7.7,14.7h2.4v2.4H7.7Z" />
  <path
     id="path20"
     d="M11.8,14.7h2.4v2.4H11.8Z" />
  <path
     id="path22"
     d="M3.6,11H6v2.4H3.6Z" />
  <path
     id="path24"
     d="M3.6,14.7H6v2.4H3.6Z" />
  <path
     d="m 2.6,1.9 a 2.006,2.006 0 0 0 -2,2 v 14.101563 a 2.006,2.006 0 0 0 2,2 h 17 a 2.006,2.006 0 0 0 2,-2 V 3.9 a 2.006,2.006 0 0 0 -2,-2 z M 2.404687,5.728125 H 11.1 19.795313 v 6.224609 6.226563 H 11.1 2.404687 v -6.226563 z"
     id="path6-7" />
</svg>
