<?xml version="1.0" encoding="UTF-8" standalone="no"?>
<svg
   xmlns:svg="http://www.w3.org/2000/svg"
   xmlns="http://www.w3.org/2000/svg"
   xmlns:sodipodi="http://sodipodi.sourceforge.net/DTD/sodipodi-0.dtd"
   xmlns:inkscape="http://www.inkscape.org/namespaces/inkscape"
   inkscape:version="1.0 (4035a4fb49, 2020-05-01)"
   sodipodi:docname="LayerGroup.svg"
   xml:space="preserve"
   style="enable-background:new 0 0 22 22;"
   viewBox="0 0 22 22"
   y="0px"
   x="0px"
   id="Ebene_1"
   version="1.1"><defs
     id="defs11" /><sodipodi:namedview
     inkscape:current-layer="Ebene_1"
     showgrid="false"
     id="namedview9"
     inkscape:window-height="480"
     inkscape:window-width="640"
     inkscape:pageshadow="2"
     inkscape:pageopacity="0"
     guidetolerance="10"
     gridtolerance="10"
     objecttolerance="10"
     borderopacity="1"
     bordercolor="#666666"
     pagecolor="#ffffff" /><path
     id="path6"
     d="M11,2.5L4.6,5.7L11,9l6.4-3.2L11,2.5L11,2.5z M7.9,9.5L4.6,11l6.4,3.2l6.4-3.2l-3.3-1.6L11,11L7.9,9.5L7.9,9.5z   M14.2,14.7L11,16.3l-3.2-1.6l-3.2,1.6l6.4,3.2l6.4-3.2L14.2,14.7L14.2,14.7z M16.3,8.4l5.3,2.6l-5.2,2.6l5.2,2.6L11,21.6L0.4,16.3  l5.2-2.6L0.4,11l5.3-2.6L0.4,5.7L11,0.4l10.6,5.3L16.3,8.4L16.3,8.4z"
     class="st1" /></svg>
