<?xml version="1.0" encoding="UTF-8" standalone="no"?>
<svg
   xmlns:svg="http://www.w3.org/2000/svg"
   xmlns="http://www.w3.org/2000/svg"
   xmlns:sodipodi="http://sodipodi.sourceforge.net/DTD/sodipodi-0.dtd"
   xmlns:inkscape="http://www.inkscape.org/namespaces/inkscape"
   inkscape:version="1.0 (4035a4fb49, 2020-05-01)"
   sodipodi:docname="Link.svg"
   id="svg12"
   version="1.1"
   viewBox="0 0 22 22">
  <defs
     id="defs16" />
  <sodipodi:namedview
     inkscape:current-layer="svg12"
     showgrid="false"
     id="namedview14"
     inkscape:window-height="480"
     inkscape:window-width="640"
     inkscape:pageshadow="2"
     inkscape:pageopacity="0"
     guidetolerance="10"
     gridtolerance="10"
     objecttolerance="10"
     borderopacity="1"
     pagecolor="#ffffff" />
  <path
     id="path8"
     d="M16,13.3V11.7a4.333,4.333,0,0,0-.4-1.9V9.6A13.721,13.721,0,0,0,17.4,8a2.319,2.319,0,0,0-.6-3.8,2.274,2.274,0,0,0-2.8.4c-1.2,1.2-2.4,2.3-3.5,3.5a2.429,2.429,0,0,0,.8,3.9c.1,0,.2.1.3.1-.1.1-.1.2-.2.3L10,13.8c-.1.1-.1.1-.2,0a4.437,4.437,0,0,1-2.2-3.4A5.439,5.439,0,0,1,8.6,6l1.5-1.8a11.92,11.92,0,0,1,1.8-1.5,6.335,6.335,0,0,1,3-1.2,4.728,4.728,0,0,1,3.8,1,4.225,4.225,0,0,1,1.7,3,4.936,4.936,0,0,1-1.2,4c-.8,1-1.9,2.3-2.8,3.2.1.1-.4.6-.4.6Z" />
  <path
     id="path10"
     d="M6.2,8.6a8.525,8.525,0,0,0,.2,3.2.661.661,0,0,1-.1.6c-.4.4-1.4,1.3-1.8,1.8A2.429,2.429,0,0,0,6,18a2.294,2.294,0,0,0,2.1-.7L11.4,14a2.387,2.387,0,0,0-.9-4h-.1c.1-.1.1-.2.2-.3l1.5-1.5c.1-.1.1-.1.3,0a4.437,4.437,0,0,1,2.2,3.4,5.676,5.676,0,0,1-1.3,4.3,7.887,7.887,0,0,1-1.2,1.5A10.048,10.048,0,0,1,10.2,19a6.187,6.187,0,0,1-2.8,1.4,4.7,4.7,0,0,1-4.1-1,4.6,4.6,0,0,1-1.7-3,4.936,4.936,0,0,1,1.2-4A29.152,29.152,0,0,1,5.6,9.2c0-.1.6-.6.6-.6Z" />
</svg>
