<?xml version="1.0" encoding="UTF-8" standalone="no"?>
<svg
   xmlns:svg="http://www.w3.org/2000/svg"
   xmlns="http://www.w3.org/2000/svg"
   xmlns:sodipodi="http://sodipodi.sourceforge.net/DTD/sodipodi-0.dtd"
   xmlns:inkscape="http://www.inkscape.org/namespaces/inkscape"
   version="1.1"
   id="Ebene_1"
   x="0px"
   y="0px"
   viewBox="0 0 22 22"
   style="enable-background:new 0 0 22 22;"
   xml:space="preserve"
   sodipodi:docname="Gear.svg"
   inkscape:version="1.0 (4035a4fb49, 2020-05-01)"><defs
     id="defs11" /><sodipodi:namedview
     inkscape:document-rotation="0"
     pagecolor="#ffffff"
     bordercolor="#666666"
     borderopacity="1"
     objecttolerance="10"
     gridtolerance="10"
     guidetolerance="10"
     inkscape:pageopacity="0"
     inkscape:pageshadow="2"
     inkscape:window-width="640"
     inkscape:window-height="480"
     id="namedview9"
     showgrid="false"
     inkscape:current-layer="Ebene_1" /><path
     d="M 10.730469 0.55859375 C 10.538281 0.56328125 10.324609 0.57460937 10.099609 0.59960938 L 9.6992188 3.0996094 L 8.0996094 3.5996094 L 6.5 1.5996094 C 6.5 1.5996094 5.7 2 5 2.5 L 6 4.6992188 L 4.8007812 5.9003906 C 4.8007812 6.0003906 2.4003906 5 2.4003906 5 C 2.4003906 5 1.8 5.7 1.5 6.5 L 3.5 8.0996094 L 3.0996094 9.6992188 L 0.5 10.199219 C 0.5 10.199219 0.4 10.900781 0.5 11.800781 L 3 12.199219 L 3.5 14 L 1.5 15.599609 C 1.5 15.599609 1.9003906 16.3 2.4003906 17 L 4.6992188 16 L 5.9003906 17.199219 C 6.0003906 17.199219 5 19.599609 5 19.599609 C 5 19.599609 5.6992187 20.200781 6.6992188 20.300781 L 8.3007812 18.300781 L 10 18.699219 C 10 18.599219 10.400391 21.199219 10.400391 21.199219 C 10.400391 21.199219 11.1 21.299219 12 21.199219 L 12.5 18.699219 L 14.099609 18.199219 C 13.999609 18.199219 15.599609 20.199219 15.599609 20.199219 C 15.599609 20.199219 16.3 19.800781 17 19.300781 L 16 17 C 16.4 16.7 17.199219 15.800781 17.199219 15.800781 C 17.199219 15.700781 19.599609 16.699219 19.599609 16.699219 C 19.599609 16.699219 20.2 16.100781 20.5 15.300781 L 18.5 13.800781 C 18.8 13.300781 19 12.199219 19 12.199219 C 18.9 12.199219 21.5 11.800781 21.5 11.800781 C 21.5 11.800781 21.6 11.099219 21.5 10.199219 L 19 9.8007812 L 18.5 8.0996094 L 20.5 6.5 C 20.5 6.5 20.099609 5.7996094 19.599609 5.0996094 L 17.199219 6 C 17.199219 6 16.100781 4.8007812 15.800781 4.8007812 C 15.700781 4.8007812 16.699219 2.4003906 16.699219 2.4003906 C 16.699219 2.4003906 16.100781 1.8 15.300781 1.5 L 13.699219 3.5 L 12.099609 3.0996094 C 12.099609 3.1996094 11.699219 0.59960938 11.699219 0.59960938 C 11.699219 0.59960937 11.307031 0.54453125 10.730469 0.55859375 z M 10.996094 7.1796875 A 3.72 3.72 0 0 1 11 7.1796875 A 3.72 3.72 0 0 1 14.720703 10.900391 A 3.72 3.72 0 0 1 11 14.619141 A 3.72 3.72 0 0 1 7.2792969 10.900391 A 3.72 3.72 0 0 1 10.996094 7.1796875 z "
     id="path6" /></svg>
