<?xml version="1.0" encoding="UTF-8" standalone="no"?>
<svg
   xmlns:svg="http://www.w3.org/2000/svg"
   xmlns="http://www.w3.org/2000/svg"
   xmlns:sodipodi="http://sodipodi.sourceforge.net/DTD/sodipodi-0.dtd"
   xmlns:inkscape="http://www.inkscape.org/namespaces/inkscape"
   inkscape:version="1.0 (4035a4fb49, 2020-05-01)"
   sodipodi:docname="Clock.svg"
   xml:space="preserve"
   style="enable-background:new 0 0 22 22;"
   viewBox="0 0 22 22"
   y="0px"
   x="0px"
   id="Ebene_1"
   version="1.1"><defs
     id="defs13" /><sodipodi:namedview
     inkscape:current-layer="Ebene_1"
     showgrid="false"
     id="namedview11"
     inkscape:window-height="480"
     inkscape:window-width="640"
     inkscape:pageshadow="2"
     inkscape:pageopacity="0"
     guidetolerance="10"
     gridtolerance="10"
     objecttolerance="10"
     borderopacity="1"
     bordercolor="#666666"
     pagecolor="#ffffff" /><path
     d="M 11.000781,0.70000003 A 10.3,10.3 0 0 0 0.70000003,11.000781 10.3,10.3 0 0 0 11.000781,21.301563 10.3,10.3 0 0 0 21.299609,11.000781 10.3,10.3 0 0 0 11.000781,0.70000003 Z m 0,2.30078127 a 8,8 0 0 1 8,7.9999997 8,8 0 0 1 -8,8 8,8 0 0 1 -8,-8 8,8 0 0 1 8,-7.9999997 z M 11.2,4.4 c 0.7,0 1.2,0.5 1.2,1.1 V 12 c 0,0.6 -0.6,1.1 -1.2,1.1 H 6.1 C 5.5,13.1 5,12.6 5,12 v -0.2 c 0,-0.6 0.5,-1.1 1.1,-1.1 h 4 V 5.5 c 0,-0.6 0.5,-1.1 1.1,-1.1 z"
     id="path32" /></svg>
