<?xml version="1.0" encoding="UTF-8" standalone="no"?>
<svg
   xmlns:dc="http://purl.org/dc/elements/1.1/"
   xmlns:cc="http://creativecommons.org/ns#"
   xmlns:rdf="http://www.w3.org/1999/02/22-rdf-syntax-ns#"
   xmlns:svg="http://www.w3.org/2000/svg"
   xmlns="http://www.w3.org/2000/svg"
   xmlns:sodipodi="http://sodipodi.sourceforge.net/DTD/sodipodi-0.dtd"
   xmlns:inkscape="http://www.inkscape.org/namespaces/inkscape"
   viewBox="0 0 22 22"
   version="1.1"
   id="svg6"
   sodipodi:docname="Compass.svg"
   inkscape:version="1.0 (4035a4fb49, 2020-05-01)">
  <metadata
     id="metadata6">
    <rdf:RDF>
      <cc:Work
         rdf:about="">
        <dc:format>image/svg+xml</dc:format>
        <dc:type
           rdf:resource="http://purl.org/dc/dcmitype/StillImage" />
      </cc:Work>
    </rdf:RDF>
  </metadata>
  <defs
     id="defs10" />
  <sodipodi:namedview
     inkscape:document-rotation="0"
     pagecolor="#ffffff"
     borderopacity="1"
     objecttolerance="10"
     gridtolerance="10"
     guidetolerance="10"
     inkscape:pageopacity="0"
     inkscape:pageshadow="2"
     inkscape:window-width="640"
     inkscape:window-height="480"
     id="namedview8"
     showgrid="false"
     inkscape:current-layer="svg6" />
  <path
     d="M 10.7,1.1046875 4.2,20.704297 c -0.1,0.5 0.299218,0.799609 0.699218,0.599609 l 5.800782,-3.5 5.798828,3.400391 A 0.509,0.509 0 0 0 17.2,20.604688 Z M 10.7,7.3 c 0.02016,4.52e-5 3.365306,10.23443 3.349609,10.248047 -0.0066,0.0057 -0.756281,-0.385737 -1.667969,-0.869141 C 11.469953,16.195502 10.71302,15.8 10.7,15.8 c -0.01302,0 -0.72292,0.403219 -1.576172,0.894531 -1.830241,1.053874 -1.69969,0.980707 -1.681641,0.927735 0.0077,-0.02249 0.74127,-2.354192 1.628906,-5.181641 C 9.958729,9.6131751 10.691478,7.2999808 10.7,7.3 Z"
     id="path4-6" />
</svg>
