<?xml version="1.0" encoding="UTF-8" standalone="no"?>
<svg
   xmlns:dc="http://purl.org/dc/elements/1.1/"
   xmlns:cc="http://creativecommons.org/ns#"
   xmlns:rdf="http://www.w3.org/1999/02/22-rdf-syntax-ns#"
   xmlns:svg="http://www.w3.org/2000/svg"
   xmlns="http://www.w3.org/2000/svg"
   xmlns:sodipodi="http://sodipodi.sourceforge.net/DTD/sodipodi-0.dtd"
   xmlns:inkscape="http://www.inkscape.org/namespaces/inkscape"
   version="1.1"
   id="Ebene_1"
   x="0px"
   y="0px"
   viewBox="0 0 22 22"
   style="enable-background:new 0 0 22 22;"
   xml:space="preserve"
   sodipodi:docname="Question.svg"
   inkscape:version="1.0 (4035a4fb49, 2020-05-01)"><metadata
     id="metadata6"><rdf:RDF><cc:Work
         rdf:about=""><dc:format>image/svg+xml</dc:format><dc:type
           rdf:resource="http://purl.org/dc/dcmitype/StillImage" /></cc:Work></rdf:RDF></metadata><defs
     id="defs984" /><sodipodi:namedview
     inkscape:document-rotation="0"
     pagecolor="#ffffff"
     bordercolor="#666666"
     borderopacity="1"
     objecttolerance="10"
     gridtolerance="10"
     guidetolerance="10"
     inkscape:pageopacity="0"
     inkscape:pageshadow="2"
     inkscape:window-width="640"
     inkscape:window-height="480"
     id="namedview982"
     showgrid="false"
     inkscape:current-layer="Ebene_1" /><path
     class="st1"
     d="M12.6,16.2H9c0-0.5,0-0.8,0-1c0-1.2,0.2-2.1,0.6-2.9s1.2-1.6,2.3-2.6c1.2-0.9,1.9-1.6,2.1-1.9  c0.4-0.5,0.5-1,0.5-1.5c0-0.8-0.3-1.4-0.9-2c-0.6-0.5-1.5-0.8-2.5-0.8S9.2,3.8,8.6,4.4C7.9,5,7.4,5.9,7.2,7L3.5,6.5  c0.1-1.7,0.8-3.1,2.2-4.3C7,1,8.8,0.4,11,0.4c2.3,0,4.1,0.6,5.5,1.8s2,2.6,2,4.2c0,0.9-0.2,1.7-0.7,2.5s-1.6,1.9-3.2,3.2  c-0.8,0.7-1.4,1.3-1.6,1.7C12.6,14.4,12.5,15.1,12.6,16.2L12.6,16.2z M8.9,21.6v-4h3.6v4H8.9L8.9,21.6z"
     id="path979" /></svg>
