<?xml version="1.0" encoding="UTF-8" standalone="no"?>
<svg
   xmlns:svg="http://www.w3.org/2000/svg"
   xmlns="http://www.w3.org/2000/svg"
   xmlns:sodipodi="http://sodipodi.sourceforge.net/DTD/sodipodi-0.dtd"
   xmlns:inkscape="http://www.inkscape.org/namespaces/inkscape"
   inkscape:version="1.0 (4035a4fb49, 2020-05-01)"
   sodipodi:docname="ZoomOut.svg"
   id="svg10"
   version="1.1"
   viewBox="0 0 22 22">
  <defs
     id="defs14" />
  <sodipodi:namedview
     inkscape:current-layer="svg10"
     showgrid="false"
     id="namedview12"
     inkscape:window-height="480"
     inkscape:window-width="640"
     inkscape:pageshadow="2"
     inkscape:pageopacity="0"
     guidetolerance="10"
     gridtolerance="10"
     objecttolerance="10"
     borderopacity="1"
     pagecolor="#ffffff" />
  <path
     id="path2"
     d="M2.8,9.1A6.4,6.4,0,1,0,9.2,2.7,6.445,6.445,0,0,0,2.8,9.1Zm13,4.4,4.6,4.6c1.7,1.7-.5,3.8-2.2,2.2l-4.6-4.6A7.878,7.878,0,0,1,9.2,17,7.853,7.853,0,0,1,1.3,9.1,7.853,7.853,0,0,1,9.2,1.2a7.853,7.853,0,0,1,7.9,7.9,8.392,8.392,0,0,1-1.3,4.4Z" />
  <path
     id="path4"
     d="M5.1,8.3h8.2a.9.9,0,0,1,.9.9h0a.9.9,0,0,1-.9.9H5.1a.9.9,0,0,1-.9-.9h0a.839.839,0,0,1,.9-.9Z" />
</svg>
