<?xml version="1.0" encoding="UTF-8" standalone="no"?>
<svg
   xmlns:svg="http://www.w3.org/2000/svg"
   xmlns="http://www.w3.org/2000/svg"
   xmlns:sodipodi="http://sodipodi.sourceforge.net/DTD/sodipodi-0.dtd"
   xmlns:inkscape="http://www.inkscape.org/namespaces/inkscape"
   inkscape:version="1.0 (4035a4fb49, 2020-05-01)"
   sodipodi:docname="3D.svg"
   id="svg12"
   version="1.1"
   viewBox="0 0 22 22">
  <defs
     id="defs16" />
  <sodipodi:namedview
     inkscape:current-layer="svg12"
     showgrid="false"
     id="namedview14"
     inkscape:window-height="480"
     inkscape:window-width="640"
     inkscape:pageshadow="2"
     inkscape:pageopacity="0"
     guidetolerance="10"
     gridtolerance="10"
     objecttolerance="10"
     borderopacity="1"
     pagecolor="#ffffff" />
  <path
     id="path48"
     d="M 11.015967,16.999125 V 5.7959997 h 3.96875 q 5.96875,0 5.96875,5.4609373 0,2.617188 -1.632813,4.179688 -1.625,1.5625 -4.335937,1.5625 z M 13.539405,7.8506872 V 14.95225 h 1.25 q 1.640625,0 2.570312,-0.984375 0.9375,-0.984375 0.9375,-2.679688 0,-1.6015623 -0.929688,-2.5156248 -0.921874,-0.921875 -2.593749,-0.921875 z" />
  <path
     id="path46"
     d="M 1.41,16.619437 V 14.471 q 1.125,0.820312 2.625,0.820312 0.9453125,0 1.46875,-0.40625 Q 6.035,14.478812 6.035,13.75225 6.035,13.00225 5.37875,12.596 4.7303125,12.18975 3.5896875,12.18975 H 2.550625 v -1.890625 h 0.9609375 q 2.1875,0 2.1875,-1.4531253 0,-1.3671875 -1.6796875,-1.3671875 -1.125,0 -2.1875,0.7265625 v -2.015625 q 1.1796875,-0.59375 2.75,-0.59375 1.71875,0 2.671875,0.773437 0.9609375,0.773438 0.9609375,2.007813 0,2.1953123 -2.2265625,2.7500003 v 0.03906 q 1.1875,0.148437 1.875,0.867187 0.6875,0.710938 0.6875,1.75 0,1.570313 -1.1484375,2.484375 -1.1484375,0.914063 -3.171875,0.914063 -1.734375,0 -2.8203125,-0.562501 z" />
</svg>
