<?xml version="1.0" encoding="UTF-8" standalone="no"?>
<svg
   xmlns:dc="http://purl.org/dc/elements/1.1/"
   xmlns:cc="http://creativecommons.org/ns#"
   xmlns:rdf="http://www.w3.org/1999/02/22-rdf-syntax-ns#"
   xmlns:svg="http://www.w3.org/2000/svg"
   xmlns="http://www.w3.org/2000/svg"
   xmlns:sodipodi="http://sodipodi.sourceforge.net/DTD/sodipodi-0.dtd"
   xmlns:inkscape="http://www.inkscape.org/namespaces/inkscape"
   inkscape:version="1.0 (4035a4fb49, 2020-05-01)"
   sodipodi:docname="Swap.svg"
   id="svg12"
   version="1.1"
   viewBox="0 0 22 22">
  <metadata
     id="metadata18">
    <rdf:RDF>
      <cc:Work
         rdf:about="">
        <dc:format>image/svg+xml</dc:format>
        <dc:type
           rdf:resource="http://purl.org/dc/dcmitype/StillImage" />
      </cc:Work>
    </rdf:RDF>
  </metadata>
  <defs
     id="defs16" />
  <sodipodi:namedview
     inkscape:current-layer="svg12"
     showgrid="false"
     id="namedview14"
     inkscape:window-height="480"
     inkscape:window-width="640"
     inkscape:pageshadow="2"
     inkscape:pageopacity="0"
     guidetolerance="10"
     gridtolerance="10"
     objecttolerance="10"
     borderopacity="1"
     pagecolor="#ffffff" />
  <path
     id="path6"
     d="M17.9,9.7a17.652,17.652,0,0,1,2.3,0c-.1,0-3.8,6.6-3.8,6.6L13.1,9.5h2.2a8.675,8.675,0,0,0-1.4-3.6A6.348,6.348,0,0,0,9.7,3L10.4.5a8.482,8.482,0,0,1,5.7,3.8c2.1,3.3,1.8,5.4,1.8,5.4Z" />
  <path
     id="path8"
     d="M4.6,12.1a17.652,17.652,0,0,1-2.3,0c.1,0,3.8-6.6,3.8-6.6l3.3,6.8H7.2a8.675,8.675,0,0,0,1.4,3.6,6.724,6.724,0,0,0,4.3,2.8l-.7,2.5a8.482,8.482,0,0,1-5.7-3.8c-2.2-3.1-1.9-5.3-1.9-5.3Z" />
</svg>
