<?xml version="1.0" encoding="UTF-8" standalone="no"?>
<svg
   xmlns:svg="http://www.w3.org/2000/svg"
   xmlns="http://www.w3.org/2000/svg"
   xmlns:sodipodi="http://sodipodi.sourceforge.net/DTD/sodipodi-0.dtd"
   xmlns:inkscape="http://www.inkscape.org/namespaces/inkscape"
   inkscape:version="1.0 (4035a4fb49, 2020-05-01)"
   sodipodi:docname="Language.svg"
   id="svg10"
   version="1.1"
   viewBox="0 0 22 22">
  <defs
     id="defs14" />
  <sodipodi:namedview
     inkscape:current-layer="svg10"
     showgrid="false"
     id="namedview12"
     inkscape:window-height="480"
     inkscape:window-width="640"
     inkscape:pageshadow="2"
     inkscape:pageopacity="0"
     guidetolerance="10"
     gridtolerance="10"
     objecttolerance="10"
     borderopacity="1"
     pagecolor="#ffffff" />
  <path
     id="path6"
     d="M11.4,16.8H9L8,14.3H3.6l-.9,2.5H.4l4.3-11H7l4.4,11ZM7.3,12.5,5.8,8.4,4.3,12.5Z" />
  <path
     id="path8"
     d="M11.7,6.7h3.5V5.6a.855.855,0,0,1,.6-.6h1a.8.8,0,0,1,.6.6,3.755,3.755,0,0,1,0,1.1h3.4s.7-.1.7.5V8.3s-.1.7-.6.7h-.7a14.907,14.907,0,0,1-2.4,4.3,6,6,0,0,1,1.4,1.1.836.836,0,0,1,.2.9l-.5,1s-.3.6-.9.1-1.9-1.5-1.9-1.5-1.1.9-1.8,1.5a.591.591,0,0,1-.9-.1l-.6-1a.571.571,0,0,1,.2-.8,11.121,11.121,0,0,0,1.5-1.2c-.8-1.1-1-1.5-1.2-1.7a.452.452,0,0,1,0-.6c.2-.2,1-.8,1-.8a.51.51,0,0,1,.8.1c.4.5,1.1,1.4,1.1,1.4a18.2,18.2,0,0,0,1.6-2.6c-2.2,0-6.3-.1-6.3-.1a.588.588,0,0,1-.6-.6,3.385,3.385,0,0,1,0-1.1s.3-.6.8-.6Z" />
</svg>
