<?xml version="1.0" encoding="UTF-8" standalone="no"?>
<svg
   xmlns:dc="http://purl.org/dc/elements/1.1/"
   xmlns:cc="http://creativecommons.org/ns#"
   xmlns:rdf="http://www.w3.org/1999/02/22-rdf-syntax-ns#"
   xmlns:svg="http://www.w3.org/2000/svg"
   xmlns="http://www.w3.org/2000/svg"
   xmlns:sodipodi="http://sodipodi.sourceforge.net/DTD/sodipodi-0.dtd"
   xmlns:inkscape="http://www.inkscape.org/namespaces/inkscape"
   version="1.1"
   id="Ebene_1"
   x="0px"
   y="0px"
   viewBox="0 0 22 22"
   style="enable-background:new 0 0 22 22;"
   xml:space="preserve"
   sodipodi:docname="EllipsisH.svg"
   inkscape:version="1.0 (4035a4fb49, 2020-05-01)"><metadata
     id="metadata8"><rdf:RDF><cc:Work
         rdf:about=""><dc:format>image/svg+xml</dc:format><dc:type
           rdf:resource="http://purl.org/dc/dcmitype/StillImage" /></cc:Work></rdf:RDF></metadata><defs
     id="defs700" /><sodipodi:namedview
     inkscape:document-rotation="0"
     pagecolor="#ffffff"
     bordercolor="#666666"
     borderopacity="1"
     objecttolerance="10"
     gridtolerance="10"
     guidetolerance="10"
     inkscape:pageopacity="0"
     inkscape:pageshadow="2"
     inkscape:window-width="640"
     inkscape:window-height="480"
     id="namedview698"
     showgrid="false"
     inkscape:current-layer="Ebene_1" /><path
     class="st1"
     d="M1.1,11c0-1.3,1.1-2.4,2.4-2.4S5.9,9.7,5.9,11s-1.1,2.4-2.4,2.4S1.1,12.4,1.1,11L1.1,11z"
     id="path691" /><path
     class="st1"
     d="M8.4,11c0-1.3,1.1-2.4,2.4-2.4s2.4,1.1,2.4,2.4s-1.1,2.4-2.4,2.4S8.4,12.4,8.4,11L8.4,11z"
     id="path689" /><path
     class="st1"
     d="M16.1,11c0-1.3,1.1-2.4,2.4-2.4s2.4,1.1,2.4,2.4s-1.1,2.4-2.4,2.4C17.1,13.4,16.1,12.4,16.1,11L16.1,11z"
     id="path693" /></svg>
