<?xml version="1.0" encoding="UTF-8" standalone="no"?>
<svg
   xmlns:svg="http://www.w3.org/2000/svg"
   xmlns="http://www.w3.org/2000/svg"
   xmlns:sodipodi="http://sodipodi.sourceforge.net/DTD/sodipodi-0.dtd"
   xmlns:inkscape="http://www.inkscape.org/namespaces/inkscape"
   inkscape:version="1.0 (4035a4fb49, 2020-05-01)"
   sodipodi:docname="Info.svg"
   xml:space="preserve"
   style="enable-background:new 0 0 22 22;"
   viewBox="0 0 22 22"
   y="0px"
   x="0px"
   id="Ebene_1"
   version="1.1"><defs
     id="defs11" /><sodipodi:namedview
     inkscape:current-layer="Ebene_1"
     showgrid="false"
     id="namedview9"
     inkscape:window-height="480"
     inkscape:window-width="640"
     inkscape:pageshadow="2"
     inkscape:pageopacity="0"
     guidetolerance="10"
     gridtolerance="10"
     objecttolerance="10"
     borderopacity="1"
     bordercolor="#666666"
     pagecolor="#ffffff" /><path
     id="path6"
     d="M7.3,7.9v0.8h0.6C8.4,8.7,8.7,8.8,9,9s0.4,0.4,0.4,0.7v5.1c0,0.3-0.1,0.6-0.3,0.7c-0.2,0.1-0.5,0.2-1,0.2H7.3  v0.8h8v-0.8h-0.9c-0.4,0-0.7-0.1-0.9-0.2c-0.2-0.1-0.3-0.3-0.3-0.4V7.7L7.3,7.9L7.3,7.9z M10.9,2.9c-0.6,0-1.2,0.1-1.7,0.4  C8.8,3.7,8.5,4,8.5,4.4s0.2,0.7,0.7,1c0.4,0.3,1,0.4,1.7,0.4s1.1-0.1,1.7-0.4c0.4-0.3,0.7-0.6,0.7-1s-0.2-0.7-0.7-1  C12.1,3,11.5,2.9,10.9,2.9L10.9,2.9z M0.2,11L11,0.2L21.8,11L11,21.8L0.2,11L0.2,11z"
     class="st1" /></svg>
